<?xml version="1.0" standalone="no"?>
<!DOCTYPE svg PUBLIC "-//W3C//DTD SVG 20010904//EN"
 "http://www.w3.org/TR/2001/REC-SVG-20010904/DTD/svg10.dtd">
<svg version="1.0" xmlns="http://www.w3.org/2000/svg"
 width="365.000000pt" height="365.000000pt" viewBox="0 0 365.000000 365.000000"
 preserveAspectRatio="xMidYMid meet">

<g transform="translate(0.000000,365.000000) scale(0.100000,-0.100000)"
fill="#000000" stroke="none">
<path d="M686 3613 c-3 -21 -6 -87 -7 -148 -1 -157 -8 -199 -36 -203 -25 -4
-30 -21 -11 -40 12 -12 2 -17 -30 -13 -6 1 -17 -10 -24 -24 -6 -14 -15 -25
-21 -25 -5 0 -7 -7 -4 -15 9 -21 -9 -28 -26 -10 -23 22 -46 18 -57 -10 -5 -14
-17 -25 -27 -25 -28 -1 -165 -19 -184 -25 -23 -8 -39 -48 -39 -99 0 -32 6 -50
25 -70 24 -26 25 -33 25 -152 0 -101 -3 -124 -14 -124 -9 0 -16 13 -18 33 -3
25 -6 28 -12 14 -13 -29 2 -84 25 -90 20 -5 20 -11 18 -401 -1 -217 -5 -400
-9 -406 -8 -12 -148 -50 -187 -50 -13 0 -33 -5 -45 -11 -19 -10 -20 -9 -13 31
5 30 4 41 -4 36 -6 -4 -11 -37 -11 -77 l0 -69 50 0 c28 0 59 -5 70 -12 22 -14
39 -3 22 14 -7 7 -30 11 -52 9 -36 -2 -40 0 -40 22 0 22 6 25 93 40 86 16 93
16 105 0 15 -21 15 -38 1 -64 -7 -15 -7 -24 1 -34 10 -12 1 -15 -52 -17 -69
-3 -66 1 -54 -80 3 -20 2 -39 -3 -42 -12 -8 -12 -396 -1 -396 5 0 11 8 15 19
7 23 43 56 52 48 3 -4 -11 -32 -31 -62 -22 -34 -35 -63 -31 -74 4 -13 -4 -21
-30 -31 -34 -13 -47 -41 -26 -54 16 -10 41 5 41 25 0 10 5 19 11 19 7 0 9 -11
6 -30 -5 -23 -3 -28 8 -24 13 5 13 2 0 -22 -18 -35 -18 -54 -1 -76 19 -26 26
-22 26 16 0 19 4 37 9 40 10 7 21 -16 21 -44 0 -18 23 -44 32 -35 3 3 1 28 -5
55 -7 38 -14 50 -31 52 -17 2 -22 11 -24 51 -2 27 1 47 7 47 14 0 30 -32 28
-54 -1 -11 4 -21 12 -24 9 -3 11 1 7 15 -7 23 2 53 15 53 13 0 11 -44 -2 -74
-9 -20 -8 -36 5 -77 18 -54 11 -74 -21 -62 -23 9 -14 -15 15 -36 15 -12 33
-26 39 -31 17 -14 18 31 1 48 -6 6 -8 15 -4 19 10 10 56 -47 56 -69 0 -18 36
-29 103 -32 20 -1 32 -7 32 -15 0 -10 -19 -15 -70 -16 -84 -3 -80 -1 -65 -20
8 -10 17 -12 22 -7 13 13 48 3 48 -14 0 -8 6 -14 13 -14 7 0 18 -5 25 -12 26
-26 42 -18 42 23 0 22 7 53 14 68 14 27 12 64 -5 86 -4 6 -7 33 -6 62 2 49 3
52 25 46 12 -3 29 0 37 7 10 8 32 11 60 8 30 -4 45 -2 45 6 -1 16 -113 179
-127 183 -14 5 -5 -39 11 -49 8 -5 7 -8 -1 -8 -9 0 -13 -16 -13 -44 0 -41 -19
-74 -33 -59 -9 8 3 84 15 99 5 8 3 14 -7 18 -13 5 -15 25 -11 137 2 72 7 134
11 137 13 13 25 -25 25 -81 0 -65 14 -87 54 -87 27 0 29 10 30 111 0 10 5 15
13 12 19 -7 16 8 -4 22 -15 11 -15 17 -5 40 15 32 25 27 26 -11 1 -20 7 -28
25 -31 18 -2 22 0 17 13 -7 17 9 44 26 44 14 0 1 -49 -17 -67 -8 -8 -15 -20
-15 -26 0 -20 50 -88 60 -82 15 9 9 207 -6 201 -7 -3 -15 2 -18 10 -8 22 -8
24 7 24 19 0 14 73 -4 78 -8 2 -21 6 -29 8 -32 11 -232 13 -251 4 -15 -9 -19
-7 -19 5 0 9 -3 14 -7 12 -5 -3 -17 -1 -28 4 -15 5 -16 8 -4 8 9 1 30 8 47 17
27 13 31 20 28 47 -2 18 -4 37 -5 43 0 6 -12 16 -26 22 -16 7 -23 17 -19 26
13 35 224 -11 224 -48 0 -18 -21 -21 -37 -5 -8 8 -13 8 -17 0 -13 -20 3 -29
81 -45 43 -9 101 -21 129 -27 54 -12 74 -8 74 17 0 8 5 14 10 14 13 0 13 -6 0
-30 -13 -24 -2 -51 18 -48 9 2 19 -7 23 -22 7 -24 7 -24 8 -2 1 25 16 29 25 6
15 -38 8 -42 -74 -40 -96 2 -90 12 -93 -157 -2 -107 5 -141 19 -102 8 20 24
19 24 0 0 -9 -7 -18 -15 -21 -20 -8 -19 -24 3 -40 30 -23 39 -16 37 28 -3 54
5 108 16 108 5 0 9 -20 9 -45 0 -36 3 -43 16 -38 15 6 14 24 -2 67 -4 11 -1
16 10 16 9 0 16 -7 16 -15 0 -8 5 -15 11 -15 8 0 10 -17 7 -50 -3 -27 -3 -50
0 -50 15 0 31 40 32 77 0 49 16 64 36 35 8 -12 20 -27 27 -34 7 -7 16 -21 20
-30 3 -10 13 -18 22 -18 12 0 9 10 -15 44 -16 25 -30 52 -30 60 0 24 -39 19
-60 -6 -10 -13 -22 -19 -27 -15 -4 5 0 13 10 19 18 9 18 10 0 24 -10 7 -13 14
-7 14 6 0 17 14 24 30 14 35 16 35 37 15 12 -13 18 -13 31 -3 9 8 13 8 9 2 -4
-7 2 -14 13 -17 13 -3 20 0 20 9 0 8 9 14 19 14 21 0 42 -48 38 -84 -1 -10 4
-21 11 -23 8 -3 12 6 12 25 0 66 24 81 53 33 15 -26 16 -32 1 -66 -20 -50 -13
-83 8 -35 21 46 88 139 88 122 0 -8 -8 -26 -18 -40 -30 -44 -44 -88 -45 -148
-1 -62 5 -67 83 -59 44 4 70 3 70 -3 0 -15 -26 -33 -41 -28 -8 2 -35 7 -61 10
-37 4 -48 2 -48 -8 0 -10 18 -17 55 -21 30 -4 55 -10 55 -14 0 -3 -12 -24 -27
-46 -18 -27 -28 -57 -31 -94 -6 -66 13 -63 20 4 4 28 16 59 34 82 16 21 54 74
84 118 84 121 123 175 129 175 3 0 5 -56 4 -125 -2 -103 -6 -132 -23 -165 -11
-21 -20 -42 -20 -45 0 -3 16 -5 35 -5 19 0 35 -4 35 -10 0 -5 -4 -10 -10 -10
-5 0 -10 -4 -10 -10 0 -17 18 -11 40 12 11 12 20 32 20 44 0 13 5 26 10 29 6
3 10 -3 10 -14 0 -11 7 -26 15 -35 17 -17 20 -30 5 -21 -6 3 -10 -4 -10 -17 0
-17 2 -20 9 -9 8 12 12 12 26 -2 18 -19 30 -23 20 -7 -4 6 6 9 27 8 31 -3 33
-1 36 30 2 22 -1 32 -11 32 -8 0 -21 20 -29 47 -15 47 -16 48 -59 49 -24 0
-54 -3 -67 -8 -23 -8 -23 -7 -21 75 2 88 8 112 21 81 7 -16 8 -16 7 6 -2 45 1
50 37 65 31 13 38 13 58 0 25 -17 36 -11 36 17 0 21 -3 23 -82 38 -40 8 -58
16 -58 26 0 8 4 13 9 9 5 -3 12 -1 15 4 4 5 2 13 -4 16 -8 5 -7 11 1 21 9 11
9 17 -1 29 -10 12 -9 15 6 15 17 0 16 3 -5 19 -22 17 -22 49 0 36 5 -4 9 3 9
13 0 11 6 25 14 31 12 10 12 16 0 39 -8 15 -14 35 -14 46 0 15 3 16 15 6 12
-10 15 -10 15 2 0 8 -5 19 -11 25 -16 16 -20 104 -6 133 7 14 12 52 10 85 -1
33 -3 82 -4 108 -1 27 3 53 10 60 14 14 15 30 1 22 -5 -3 -10 -3 -11 2 -5 51
-4 71 2 90 5 12 4 25 -1 28 -4 3 -10 0 -12 -5 -2 -6 -3 17 -3 51 0 50 -3 64
-20 75 -12 9 -14 14 -6 14 10 0 11 3 2 13 -8 10 -7 17 1 25 9 9 9 12 0 12 -7
0 -12 9 -12 20 0 26 27 26 35 0 4 -13 15 -20 31 -20 37 0 32 45 -8 89 -18 18
-27 31 -20 27 22 -13 35 4 17 24 -15 16 -13 18 20 23 20 3 42 4 49 1 15 -6 26
-48 26 -100 0 -18 5 -36 10 -39 6 -3 10 -17 10 -31 0 -13 5 -24 10 -24 6 0 10
7 10 16 0 9 6 14 13 12 19 -7 21 -40 2 -54 -17 -13 -30 -98 -13 -88 4 3 8 16
8 30 0 13 4 24 9 24 10 0 9 -50 -1 -66 -4 -6 -1 -20 7 -30 8 -10 15 -32 15
-48 0 -16 4 -43 10 -60 21 -67 48 -241 40 -257 -10 -18 2 -121 22 -176 12 -36
39 -73 81 -113 10 -10 14 -21 9 -24 -5 -3 -15 1 -22 9 -16 19 -34 19 -26 0 3
-9 0 -15 -9 -15 -17 0 -20 16 -5 25 21 13 9 25 -17 18 -16 -3 -36 -6 -45 -5
-19 1 -24 -13 -9 -23 6 -3 8 -14 6 -25 -2 -12 2 -20 10 -20 8 0 11 7 8 21 -4
16 -2 20 8 17 8 -3 14 -15 14 -28 0 -14 8 -26 20 -31 21 -8 9 -10 -67 -13 -26
-1 -28 -3 -28 -47 0 -60 10 -109 22 -109 5 0 7 9 3 19 -3 11 -2 22 3 25 12 7
32 -34 29 -59 -2 -16 4 -20 33 -22 19 -1 42 -2 50 -2 35 -2 -10 -21 -56 -23
-72 -4 -82 -16 -83 -111 -1 -45 -5 -83 -9 -86 -5 -4 -11 -14 -15 -23 -4 -12
-12 -15 -23 -11 -14 5 -16 2 -10 -23 4 -16 10 -44 13 -61 4 -28 9 -33 33 -33
36 0 46 14 59 84 6 33 13 61 15 64 7 6 199 71 214 72 6 0 12 -7 12 -15 0 -9
10 -16 23 -16 12 -1 45 -3 74 -4 28 -2 56 -6 62 -9 6 -4 11 0 11 9 0 19 -7 22
-95 31 -38 4 -61 9 -50 11 11 2 29 8 40 13 11 4 28 11 37 13 9 3 18 16 20 29
7 45 -28 198 -55 238 -9 14 -16 43 -15 63 1 35 3 38 40 43 21 4 38 10 38 13 0
4 -20 12 -45 19 -44 12 -56 24 -35 37 15 9 13 132 -2 138 -10 3 -10 9 -1 25 8
13 10 39 6 71 -4 38 -2 53 11 66 12 12 13 21 6 34 -13 25 -4 31 47 31 24 0 43
5 43 10 0 6 -13 10 -30 10 -35 0 -81 20 -74 31 11 18 12 294 1 301 -7 4 -6 12
4 24 11 13 11 18 2 21 -23 8 -14 20 18 27 17 3 39 1 50 -4 16 -9 19 -7 19 15
0 22 -3 25 -20 20 -30 -10 -83 4 -72 18 10 13 9 123 -1 133 -10 10 19 34 41
34 29 0 45 -25 37 -59 -3 -16 -2 -32 3 -35 11 -7 19 77 14 136 -4 38 -22 44
-22 8 0 -27 -17 -34 -52 -19 -27 11 -29 14 -14 25 16 11 16 13 0 22 -12 7 -13
11 -5 17 9 5 7 11 -6 21 -17 13 -17 13 5 14 13 0 22 6 22 16 0 8 -4 13 -9 9
-6 -3 -9 47 -7 130 1 75 -1 138 -5 141 -4 2 -14 -14 -20 -36 -16 -54 -25 -36
-32 70 -9 137 -83 312 -180 424 l-34 40 -47 -60 c-56 -71 -118 -196 -142 -284
-9 -36 -20 -114 -24 -175 -6 -104 -7 -108 -19 -77 -7 18 -18 31 -25 29 -6 -2
-30 -57 -53 -123 -38 -110 -41 -127 -42 -230 -1 -79 -6 -123 -17 -150 -37 -87
-53 -212 -54 -409 0 -178 -1 -192 -20 -208 -11 -9 -29 -17 -40 -17 -11 0 -20
-4 -20 -9 0 -5 -43 -7 -97 -5 -87 3 -99 2 -115 -16 -23 -25 -38 -26 -39 -2 -1
9 -3 109 -6 222 -4 241 4 391 20 388 21 -3 77 13 77 23 0 5 -4 9 -9 9 -5 0
-22 5 -37 10 -26 10 -26 11 -9 30 10 11 24 20 31 20 21 0 26 36 9 75 -27 67
-11 145 31 145 25 0 42 36 30 66 -5 13 -9 14 -21 4 -8 -7 -15 -19 -15 -27 0
-8 -4 -11 -10 -8 -5 3 -7 19 -3 35 6 33 -3 39 -22 13 -11 -14 -18 -16 -42 -8
-27 10 -28 13 -29 80 -2 121 -3 125 -19 119 -8 -4 -22 -1 -29 5 -11 9 -16 9
-21 1 -11 -19 -76 -1 -103 27 -15 16 -21 32 -17 44 4 13 2 19 -9 19 -9 0 -16
-6 -16 -14 0 -8 -4 -17 -10 -21 -10 -6 -50 64 -50 89 0 19 -31 30 -42 14 -11
-19 -10 -23 12 -43 28 -25 25 -40 -7 -40 -40 0 -56 13 -50 42 3 17 -3 31 -20
47 -21 20 -23 26 -13 42 10 16 24 19 91 19 58 0 79 -3 79 -12 0 -7 5 -13 10
-13 6 0 10 9 10 20 0 14 -11 22 -40 30 -22 6 -44 8 -49 6 -5 -3 -11 4 -15 16
-4 18 -8 20 -18 10 -18 -18 -27 -15 -21 8 4 14 -2 22 -21 30 -24 9 -31 24 -27
57 3 21 -19 53 -35 53 -13 0 -15 15 -14 93 3 166 1 197 -14 197 -8 0 -16 -15
-20 -37z m-42 -472 c3 -5 -4 -11 -16 -14 -25 -7 -33 -3 -23 12 8 13 32 14 39
2z m-306 -277 c12 -4 22 -14 22 -25 0 -24 -21 -70 -42 -91 -17 -17 -18 -15
-18 52 0 39 3 70 8 70 4 0 17 -3 30 -6z m752 -80 l0 -67 -25 38 c-26 37 -26
71 -1 87 22 15 26 7 26 -58z m-62 -1 c18 -31 31 -61 29 -66 -3 -11 -97 97 -97
112 0 6 8 11 18 11 10 -1 30 -23 50 -57z m-397 -6 c-8 -8 -11 -7 -11 5 0 9 -3
25 -6 35 -5 13 -1 11 11 -5 13 -18 14 -27 6 -35z m358 -24 c53 -60 58 -72 40
-90 -9 -9 -20 -6 -45 13 -20 16 -35 21 -39 15 -3 -6 -9 -11 -13 -11 -12 0 -32
53 -32 85 0 64 25 60 89 -12z m-354 -13 c3 -5 1 -10 -4 -10 -6 0 -11 5 -11 10
0 6 2 10 4 10 3 0 8 -4 11 -10z m-275 -16 c0 -8 -4 -12 -10 -9 -5 3 -10 10
-10 16 0 5 5 9 10 9 6 0 10 -7 10 -16z m392 -72 c66 -44 74 -52 62 -65 -6 -6
-123 72 -159 106 -20 19 -20 19 5 12 13 -4 55 -28 92 -53z m125 -121 c4 -26 2
-41 -5 -41 -14 0 -35 76 -26 91 11 18 25 -5 31 -50z m331 38 c-2 -6 -8 -10
-13 -10 -5 0 -11 4 -13 10 -2 6 4 11 13 11 9 0 15 -5 13 -11z m515 -24 c-5
-14 -43 -8 -43 6 0 4 8 12 17 18 20 11 35 -3 26 -24z m-1403 -91 c0 -80 -3
-105 -12 -102 -13 5 -24 177 -13 205 14 38 25 -8 25 -103z m1557 84 c-3 -8 -6
-5 -6 6 -1 11 2 17 5 13 3 -3 4 -12 1 -19z m-1497 -42 c0 -35 -5 -58 -15 -66
-13 -11 -15 -4 -15 54 0 52 3 66 15 66 11 0 15 -13 15 -54z m52 48 c7 -7 -24
-64 -34 -64 -10 0 -10 54 -1 63 8 9 28 9 35 1z m340 -29 c12 -26 4 -46 -11
-29 -5 5 -12 19 -16 32 -9 31 12 29 27 -3z m-298 -37 c-3 -18 -9 -45 -14 -60
-6 -18 -4 -32 7 -48 19 -27 13 -33 -21 -20 -21 8 -26 15 -21 30 5 16 2 20 -14
20 -29 0 -26 14 12 65 39 54 59 59 51 13z m446 -3 c0 -8 -6 -15 -14 -15 -20 0
-29 17 -14 23 22 9 28 7 28 -8z m110 -6 c19 -35 5 -44 -19 -11 -18 26 -19 32
-7 32 8 0 20 -9 26 -21z m60 -21 c0 -12 -1 -19 -3 -17 -1 2 -9 12 -16 22 -12
14 -11 17 3 17 10 0 16 -8 16 -22z m-96 -4 c3 -8 -3 -25 -14 -36 -21 -23 -25
-14 -14 30 7 26 19 29 28 6z m-676 -281 c-4 -133 -22 -141 -26 -11 -3 96 0
118 18 118 7 0 10 -36 8 -107z m816 81 c3 -9 6 -51 6 -94 0 -43 -3 -85 -6 -94
-9 -25 -24 -19 -24 9 0 14 -4 25 -9 25 -5 0 -15 14 -22 32 -7 18 -21 40 -31
50 -25 25 -24 51 2 43 24 -8 60 11 60 30 0 20 16 19 24 -1z m-761 -44 c6 -44
-1 -80 -14 -80 -5 0 -9 27 -9 60 0 68 15 81 23 20z m50 16 c3 -8 -1 -20 -9
-26 -12 -10 -14 -8 -14 14 0 28 14 35 23 12z m603 -41 c21 -30 34 -58 31 -62
-4 -3 -8 -4 -10 -2 -1 2 -17 21 -35 42 -27 32 -43 77 -27 77 3 0 21 -25 41
-55z m-548 -52 c-3 -88 -3 -88 -30 -91 -21 -3 -28 1 -28 14 0 10 -5 32 -12 50
-10 29 -9 35 15 64 15 17 27 36 27 41 0 5 7 9 15 9 13 0 15 -14 13 -87z m450
-3 c3 -74 1 -82 -13 -70 -20 16 -22 164 -2 158 8 -3 13 -32 15 -88z m42 61 c0
-4 18 -29 40 -54 28 -32 40 -54 40 -76 0 -30 -1 -31 -46 -31 -44 0 -46 1 -42
25 3 14 1 28 -3 31 -12 7 -11 114 1 114 6 0 10 -4 10 -9z m-90 -61 c0 -5 -4
-10 -10 -10 -5 0 -10 5 -10 10 0 6 5 10 10 10 6 0 10 -4 10 -10z m-120 -175
l-7 -130 -1 139 c0 76 3 134 8 130 4 -5 5 -67 0 -139z m330 90 c7 -9 10 -18 7
-21 -10 -11 -37 5 -37 21 0 19 14 19 30 0z m-770 -156 c0 -46 -4 -79 -10 -79
-6 0 -10 35 -10 86 0 54 4 83 10 79 6 -3 10 -42 10 -86z m798 -1 c2 -61 0 -78
-14 -89 -13 -11 -18 -11 -21 -1 -3 6 -11 12 -18 12 -16 0 -65 57 -65 76 0 8 5
14 11 14 6 0 8 8 4 19 -7 24 32 51 45 32 5 -9 11 -7 20 4 24 29 35 10 38 -67z
m-747 50 c1 -7 0 -23 -1 -35 -1 -13 3 -23 9 -23 5 0 11 15 13 33 2 24 8 33 26
35 33 5 28 -20 -13 -59 -19 -19 -35 -39 -35 -46 0 -6 -4 -15 -10 -18 -6 -4
-10 18 -10 59 0 37 4 66 10 66 6 0 10 -6 11 -12z m610 -14 c12 -14 11 -16 -5
-13 -11 2 -21 10 -24 17 -5 17 13 15 29 -4z m-486 -74 c0 -64 0 -65 -28 -68
-22 -3 -30 1 -34 17 -3 12 -12 21 -19 21 -22 0 -17 19 17 62 46 58 64 49 64
-32z m451 43 c-3 -8 -6 -35 -6 -59 0 -37 -3 -44 -20 -44 -18 0 -20 7 -20 59 0
59 9 74 38 63 7 -2 11 -11 8 -19z m-73 -50 c4 -18 3 -33 -2 -33 -10 0 -21 57
-13 65 7 7 8 5 15 -32z m117 1 c0 -8 -7 -14 -15 -14 -10 0 -15 10 -15 26 0 22
2 25 15 14 8 -7 15 -19 15 -26z m-10 -44 c0 -5 -5 -10 -11 -10 -5 0 -7 5 -4
10 3 6 8 10 11 10 2 0 4 -4 4 -10z m-644 -137 c-10 -10 -19 5 -10 18 6 11 8
11 12 0 2 -7 1 -15 -2 -18z m54 7 c0 -5 -9 -10 -21 -10 -11 0 -17 5 -14 10 3
6 13 10 21 10 8 0 14 -4 14 -10z m1000 -30 c0 -5 -5 -10 -11 -10 -5 0 -7 5 -4
10 3 6 8 10 11 10 2 0 4 -4 4 -10z m40 -15 c0 -14 -4 -25 -10 -25 -5 0 -10 11
-10 25 0 14 5 25 10 25 6 0 10 -11 10 -25z m50 -10 c0 -8 -4 -15 -10 -15 -5 0
-10 7 -10 15 0 8 5 15 10 15 6 0 10 -7 10 -15z m-510 -15 c0 -21 -15 -27 -25
-10 -7 12 2 30 16 30 5 0 9 -9 9 -20z m266 -17 c-4 -4 -11 -1 -16 7 -16 25
-11 35 7 17 9 -9 13 -20 9 -24z m-219 5 c-3 -8 -6 -5 -6 6 -1 11 2 17 5 13 3
-3 4 -12 1 -19z m293 -2 c0 -3 -4 -8 -10 -11 -5 -3 -10 -1 -10 4 0 6 5 11 10
11 6 0 10 -2 10 -4z m-951 -32 c3 -16 1 -17 -13 -5 -19 16 -21 34 -3 29 6 -3
14 -13 16 -24z m751 16 c0 -5 -4 -10 -10 -10 -5 0 -10 5 -10 10 0 6 5 10 10
10 6 0 10 -4 10 -10z m-850 -8 c0 -14 -11 -21 -26 -15 -8 3 -11 9 -8 14 7 11
34 12 34 1z m839 -90 c33 -57 38 -83 18 -100 -18 -15 -77 -1 -77 19 0 12 37
11 45 -1 9 -15 22 -12 29 6 4 9 -1 29 -11 43 -35 52 -53 91 -52 113 1 22 1 22
8 -2 5 -14 22 -49 40 -78z m-899 62 c0 -8 -5 -12 -10 -9 -6 4 -8 11 -5 16 9
14 15 11 15 -7z m58 -49 c-3 -27 -23 -31 -24 -5 -1 20 5 30 17 30 6 0 9 -11 7
-25z m-56 -7 c-7 -7 -12 -8 -12 -2 0 14 12 26 19 19 2 -3 -1 -11 -7 -17z
m1828 -19 c0 -5 -4 -9 -10 -9 -5 0 -10 7 -10 16 0 8 5 12 10 9 6 -3 10 -10 10
-16z m-999 -9 c14 0 11 -36 -5 -49 -16 -13 -20 -9 -30 33 -6 24 -4 27 9 22 9
-3 21 -6 26 -6z m-505 -57 c-20 -22 -26 -24 -26 -11 0 9 6 21 13 25 8 4 17 17
22 28 7 18 9 18 12 3 2 -10 -7 -30 -21 -45z m707 36 c4 -15 1 -19 -11 -17 -21
4 -29 38 -9 38 8 0 17 -9 20 -21z m912 -94 c18 -22 37 -55 43 -72 16 -49 -5
-41 -27 10 -10 23 -42 67 -69 97 -28 30 -51 62 -51 70 -1 15 40 -26 104 -105z
m-1802 7 c-24 -40 -28 -44 -31 -25 -2 13 8 37 25 58 38 47 42 26 6 -33z m637
48 c0 -13 -7 -20 -20 -20 -19 0 -27 20 -13 33 13 14 33 6 33 -13z m415 -45
c-14 -16 -25 -34 -25 -41 0 -8 -4 -14 -10 -14 -5 0 -10 -5 -10 -11 0 -5 4 -8
9 -5 5 4 12 0 14 -6 8 -20 28 13 21 35 -3 9 -1 17 5 17 6 0 11 -7 11 -15 0
-21 13 -19 45 9 16 14 33 22 39 19 6 -4 2 -11 -8 -17 -47 -29 -51 -34 -50 -77
1 -24 6 -45 12 -47 6 -2 3 -17 -10 -38 -22 -37 -33 -44 -23 -15 4 15 -1 20
-27 24 -18 2 -38 1 -44 -4 -5 -4 -20 -6 -32 -2 -13 3 -22 1 -22 -6 0 -6 -6
-11 -14 -11 -26 0 4 84 51 140 35 42 48 59 68 85 10 15 21 23 23 17 1 -5 -8
-22 -23 -37z m544 36 c21 -13 5 -28 -34 -33 -19 -2 -35 -3 -35 -1 0 5 44 43
49 43 3 0 12 -4 20 -9z m-699 -46 c0 -27 -21 -33 -39 -12 -8 10 -7 17 1 25 20
20 38 14 38 -13z m200 9 c0 -8 -5 -12 -10 -9 -6 4 -8 11 -5 16 9 14 15 11 15
-7z m600 -24 c0 -5 7 -10 15 -10 10 0 13 -8 11 -27 -2 -16 -1 -20 1 -10 6 22
21 22 25 0 2 -10 12 -18 23 -18 28 0 31 -30 3 -31 -13 0 -38 -2 -57 -5 l-34
-4 -4 58 c-3 36 0 57 6 57 6 0 11 -4 11 -10z m75 -10 c3 -5 2 -10 -4 -10 -5 0
-13 5 -16 10 -3 6 -2 10 4 10 5 0 13 -4 16 -10z m-1705 -15 c0 -8 -4 -15 -10
-15 -5 0 -7 7 -4 15 4 8 8 15 10 15 2 0 4 -7 4 -15z m175 -25 c3 -5 1 -10 -4
-10 -6 0 -11 5 -11 10 0 6 2 10 4 10 3 0 8 -4 11 -10z m-336 -62 c-13 -17 -25
-26 -27 -20 -2 6 7 25 20 42 12 17 24 26 26 21 2 -6 -7 -25 -19 -43z m164 -37
c-7 -42 -13 -37 -13 10 0 30 3 39 9 30 5 -8 7 -26 4 -40z m-83 -3 c0 -5 -7 -8
-15 -8 -17 0 -18 2 -9 25 5 13 8 14 15 3 5 -7 9 -16 9 -20z m1680 2 c-14 -4
-47 -10 -74 -13 -41 -6 -47 -5 -36 7 13 17 49 23 100 17 32 -4 33 -5 10 -11z
m103 13 c-7 -2 -19 -2 -25 0 -7 3 -2 5 12 5 14 0 19 -2 13 -5z m106 -37 c-14
-14 -120 -43 -125 -35 -8 13 -5 15 36 27 35 10 97 16 89 8z m-934 -26 c3 -5
-1 -10 -9 -10 -9 0 -16 5 -16 10 0 6 4 10 9 10 6 0 13 -4 16 -10z m95 -2 c0
-5 -13 -8 -30 -8 -16 0 -30 4 -30 9 0 4 13 8 30 7 16 -1 30 -4 30 -8z m670
-11 c0 -19 -8 -26 -42 -37 -24 -7 -47 -17 -52 -22 -27 -23 -56 -2 -56 42 0 19
5 20 115 33 17 2 31 5 33 6 1 0 2 -10 2 -22z m-1813 -9 c-3 -8 -6 -5 -6 6 -1
11 2 17 5 13 3 -3 4 -12 1 -19z m138 -68 c4 -6 -8 -10 -29 -10 -20 0 -36 5
-36 10 0 6 13 10 29 10 17 0 33 -4 36 -10z m1295 -34 c0 -3 -4 -8 -10 -11 -5
-3 -10 -1 -10 4 0 6 5 11 10 11 6 0 10 -2 10 -4z m-1350 -27 c0 -6 -4 -7 -10
-4 -5 3 -10 11 -10 16 0 6 5 7 10 4 6 -3 10 -11 10 -16z m1398 1 c7 -11 9 -20
4 -20 -10 0 -32 22 -32 32 0 15 15 8 28 -12z m-1283 -59 c-6 -6 -30 -11 -55
-13 -52 -3 -57 -21 -8 -28 l33 -5 3 -85 c3 -77 1 -83 -12 -65 -9 12 -11 24 -5
29 15 16 10 82 -8 97 -9 8 -30 14 -47 14 -29 0 -31 2 -28 34 3 28 1 33 -13 28
-10 -5 -14 -3 -9 4 4 8 27 9 65 5 37 -3 60 -2 65 5 4 8 9 8 17 0 7 -7 7 -14 2
-20z m40 -61 c-3 -5 -10 -10 -16 -10 -5 0 -9 5 -9 10 0 6 7 10 16 10 8 0 12
-4 9 -10z"/>
<path d="M1050 1845 c0 -18 19 -40 26 -32 4 4 0 15 -9 24 -9 10 -17 13 -17 8z"/>
<path d="M1334 1239 c-3 -6 0 -15 7 -20 22 -14 29 -11 29 11 0 21 -24 27 -36
9z"/>
<path d="M1310 1194 c0 -8 5 -12 10 -9 6 3 10 10 10 16 0 5 -4 9 -10 9 -5 0
-10 -7 -10 -16z"/>
<path d="M2018 1083 c7 -3 16 -2 19 1 4 3 -2 6 -13 5 -11 0 -14 -3 -6 -6z"/>
<path d="M736 3623 c10 -40 14 -41 14 -5 0 18 -5 32 -10 32 -6 0 -8 -11 -4
-27z"/>
<path d="M739 3508 c-7 -21 -7 -128 1 -133 6 -4 10 19 10 64 0 39 -2 71 -5 71
-3 0 -5 -1 -6 -2z"/>
<path d="M841 3124 c0 -11 3 -14 6 -6 3 7 2 16 -1 19 -3 4 -6 -2 -5 -13z"/>
<path d="M920 3066 c0 -14 5 -26 10 -26 6 0 10 9 10 19 0 11 -4 23 -10 26 -6
4 -10 -5 -10 -19z"/>
<path d="M2265 2651 c-3 -5 -1 -12 5 -16 5 -3 10 1 10 9 0 18 -6 21 -15 7z"/>
<path d="M2272 2400 c0 -14 2 -19 5 -12 2 6 2 18 0 25 -3 6 -5 1 -5 -13z"/>
<path d="M1730 2338 c0 -21 5 -38 10 -38 13 0 13 40 0 60 -7 11 -10 5 -10 -22z"/>
<path d="M2267 2173 c-4 -54 -3 -127 2 -163 7 -54 8 -38 10 98 0 89 -1 162 -3
162 -2 0 -6 -44 -9 -97z"/>
<path d="M1740 2231 c0 -20 13 -35 23 -25 7 8 -4 44 -14 44 -5 0 -9 -9 -9 -19z"/>
<path d="M1743 2144 c-3 -8 -1 -20 6 -27 8 -8 11 -4 11 16 0 30 -7 35 -17 11z"/>
<path d="M1740 2046 c0 -8 5 -18 10 -21 6 -3 10 3 10 14 0 12 -4 21 -10 21 -5
0 -10 -6 -10 -14z"/>
<path d="M1770 2008 c0 -7 5 -20 10 -28 8 -13 10 -12 10 3 0 9 0 20 1 24 0 4
-4 9 -10 11 -6 2 -11 -2 -11 -10z"/>
<path d="M1831 1996 c-8 -9 -8 -21 -2 -37 11 -27 12 -26 16 19 3 36 2 37 -14
18z"/>
<path d="M1740 1981 c0 -6 5 -13 10 -16 6 -3 10 1 10 9 0 9 -4 16 -10 16 -5 0
-10 -4 -10 -9z"/>
<path d="M1745 1897 c-4 -10 -5 -21 -1 -24 10 -10 18 4 13 24 -4 17 -4 17 -12
0z"/>
<path d="M1184 1794 c3 -9 6 -21 7 -27 0 -7 4 -3 9 8 13 29 12 35 -6 35 -11 0
-14 -5 -10 -16z"/>
<path d="M1745 1800 c-3 -5 -1 -10 4 -10 6 0 11 5 11 10 0 6 -2 10 -4 10 -3 0
-8 -4 -11 -10z"/>
<path d="M1650 1730 c0 -5 5 -10 10 -10 6 0 10 5 10 10 0 6 -4 10 -10 10 -5 0
-10 -4 -10 -10z"/>
<path d="M2264 1694 c-3 -19 -2 -45 4 -57 9 -18 11 -12 11 36 1 65 -5 74 -15
21z"/>
<path d="M1780 1679 c0 -13 7 -33 15 -43 14 -19 15 -18 15 11 0 17 -7 36 -15
43 -13 10 -15 9 -15 -11z"/>
<path d="M1843 1668 c1 -28 27 -50 27 -23 0 8 -4 15 -9 15 -5 0 -12 8 -14 18
-3 9 -4 5 -4 -10z"/>
<path d="M1 1342 c0 -245 2 -270 16 -265 12 5 15 2 10 -9 -3 -10 0 -19 9 -22
16 -6 64 -8 64 -3 0 9 -45 96 -64 122 -11 16 -22 43 -24 60 -5 46 7 28 77
-114 21 -42 26 -8 26 169 0 176 -3 207 -20 180 -10 -16 -55 -12 -62 6 -3 8 -1
29 4 47 8 27 14 32 41 32 28 0 32 3 32 27 0 26 -3 28 -39 28 -22 0 -46 3 -55
6 -14 5 -16 -22 -15 -264z"/>
<path d="M1836 1602 c-2 -4 -1 -32 4 -62 l8 -55 1 63 c1 59 -2 72 -13 54z"/>
<path d="M1798 1590 c-11 -25 -16 -107 -7 -121 15 -24 20 -2 17 67 -2 38 -6
62 -10 54z"/>
<path d="M1877 1587 c-4 -10 -2 -17 4 -17 6 0 9 -10 7 -23 -4 -20 -1 -23 20
-19 22 4 23 6 9 17 -9 6 -20 22 -25 35 -7 19 -10 21 -15 7z"/>
<path d="M87 1524 c-7 -7 14 -44 26 -44 12 0 4 43 -9 47 -5 2 -13 1 -17 -3z"/>
<path d="M635 1520 c-3 -5 -1 -10 4 -10 6 0 11 5 11 10 0 6 -2 10 -4 10 -3 0
-8 -4 -11 -10z"/>
<path d="M730 1504 c0 -8 5 -12 10 -9 6 4 8 11 5 16 -9 14 -15 11 -15 -7z"/>
<path d="M821 1494 c0 -11 3 -14 6 -6 3 7 2 16 -1 19 -3 4 -6 -2 -5 -13z"/>
<path d="M1841 1464 c0 -11 3 -14 6 -6 3 7 2 16 -1 19 -3 4 -6 -2 -5 -13z"/>
<path d="M1790 1360 c0 -40 4 -70 10 -70 6 0 10 30 10 70 0 40 -4 70 -10 70
-6 0 -10 -30 -10 -70z"/>
<path d="M3326 1375 c-8 -8 -19 -15 -25 -15 -12 0 -15 -17 -3 -23 10 -6 65 26
70 41 5 17 -24 15 -42 -3z"/>
<path d="M3403 1374 c-7 -3 -13 -14 -13 -24 0 -14 6 -18 28 -15 15 2 31 0 36
-3 24 -14 75 -10 91 8 12 13 13 20 5 25 -7 4 -16 1 -21 -6 -7 -11 -12 -12 -27
-2 -24 14 -82 24 -99 17z"/>
<path d="M2262 1273 c-9 -16 -7 -23 10 -37 27 -24 34 -13 15 25 -14 30 -16 30
-25 12z"/>
<path d="M1790 1245 c0 -9 5 -15 11 -13 6 2 11 8 11 13 0 5 -5 11 -11 13 -6 2
-11 -4 -11 -13z"/>
<path d="M1850 1210 c0 -5 5 -10 10 -10 6 0 10 5 10 10 0 6 -4 10 -10 10 -5 0
-10 -4 -10 -10z"/>
<path d="M648 1198 c-2 -7 -2 -26 1 -43 5 -24 13 -31 41 -36 19 -4 36 -6 38
-4 4 4 -61 94 -69 94 -4 1 -9 -5 -11 -11z"/>
<path d="M983 1154 c-3 -8 2 -23 11 -32 15 -15 16 -14 16 16 0 33 -16 43 -27
16z"/>
<path d="M3170 1150 c0 -13 -7 -20 -20 -20 -11 0 -27 -12 -37 -27 -10 -16 -24
-34 -32 -42 -11 -13 -12 -10 -7 16 8 37 -9 54 -28 27 -9 -12 -25 -17 -54 -16
-26 1 -42 -3 -45 -12 -7 -18 1 -26 25 -26 23 0 36 -29 18 -40 -11 -7 -11 -13
1 -32 11 -16 15 -46 13 -100 -1 -43 1 -78 5 -78 4 0 20 -13 37 -28 35 -34 74
-50 134 -54 l45 -3 7 59 c7 53 5 61 -17 88 -26 30 -26 65 -1 97 8 10 5 17 -9
27 -10 8 -16 17 -12 20 3 4 0 13 -8 21 -21 20 -19 83 2 98 9 7 14 19 10 29 -9
23 -27 20 -27 -4z m-59 -201 c28 -30 38 -59 21 -59 -35 0 -109 61 -97 79 12
20 47 11 76 -20z m46 -163 c4 -8 12 -15 18 -15 15 1 17 -18 2 -24 -20 -8 -77
20 -77 38 0 19 46 20 57 1z"/>
<path d="M2270 1134 c0 -8 5 -12 10 -9 6 3 10 10 10 16 0 5 -4 9 -10 9 -5 0
-10 -7 -10 -16z"/>
<path d="M2928 1123 c7 -3 16 -2 19 1 4 3 -2 6 -13 5 -11 0 -14 -3 -6 -6z"/>
<path d="M538 1115 c-3 -4 12 -31 35 -62 23 -30 43 -50 45 -44 2 6 8 11 14 11
5 0 6 -9 3 -20 -5 -14 2 -32 19 -55 28 -37 32 -55 15 -72 -12 -12 14 -57 39
-67 17 -7 15 10 -4 28 -23 23 -10 112 17 119 13 3 19 15 20 34 2 28 -2 96 -5
100 0 1 -38 6 -84 13 -46 6 -89 13 -96 16 -6 2 -15 2 -18 -1z m192 -96 c0 -5
-4 -9 -10 -9 -5 0 -10 7 -10 16 0 8 5 12 10 9 6 -3 10 -10 10 -16z"/>
<path d="M1045 1110 c-3 -5 -1 -10 4 -10 6 0 11 5 11 10 0 6 -2 10 -4 10 -3 0
-8 -4 -11 -10z"/>
<path d="M2710 1071 c-5 -21 -7 -46 -4 -55 10 -25 33 -19 40 10 6 24 10 26 48
21 23 -3 48 -2 56 3 24 15 -7 40 -51 40 -21 0 -41 5 -44 10 -14 22 -35 8 -45
-29z"/>
<path d="M775 1071 c-7 -12 12 -24 25 -16 11 7 4 25 -10 25 -5 0 -11 -4 -15
-9z"/>
<path d="M855 1060 c-3 -6 1 -13 10 -16 19 -8 30 0 20 15 -8 14 -22 14 -30 1z"/>
<path d="M2660 1059 c0 -5 5 -7 10 -4 6 3 10 8 10 11 0 2 -4 4 -10 4 -5 0 -10
-5 -10 -11z"/>
<path d="M3340 1025 c-13 -14 -20 -28 -17 -32 9 -8 59 28 59 42 -1 19 -19 15
-42 -10z"/>
<path d="M1420 945 c-46 -47 -82 -87 -79 -89 2 -3 36 24 74 59 39 35 78 64 88
65 17 0 24 34 9 44 -5 3 -46 -33 -92 -79z"/>
<path d="M2648 1018 c0 -7 -1 -20 -2 -28 -1 -8 -10 -15 -21 -15 -18 0 -21 -6
-16 -35 0 -5 8 -10 16 -10 18 0 18 -1 1 -35 -8 -15 -12 -39 -10 -53 6 -31 3
-28 32 -36 19 -6 22 -4 22 17 0 14 -5 27 -12 29 -8 3 -5 14 9 34 16 23 19 40
16 87 -4 40 -9 57 -19 57 -8 0 -15 -6 -16 -12z"/>
<path d="M54 1004 c3 -9 6 -18 6 -20 0 -12 29 -2 34 12 9 23 8 24 -20 24 -20
0 -25 -4 -20 -16z"/>
<path d="M835 999 c-3 -8 -2 -26 3 -39 l9 -25 7 22 c9 28 -9 67 -19 42z"/>
<path d="M1780 991 c0 -25 6 -27 13 -6 4 8 2 17 -3 20 -6 4 -10 -3 -10 -14z"/>
<path d="M2146 992 c-8 -13 32 -19 69 -11 17 4 23 7 14 8 -9 0 -30 4 -47 7
-16 3 -32 2 -36 -4z"/>
<path d="M917 983 c-4 -3 -7 -16 -6 -27 0 -19 1 -19 10 3 10 24 8 36 -4 24z"/>
<path d="M2280 979 c0 -5 5 -7 10 -4 6 3 10 8 10 11 0 2 -4 4 -10 4 -5 0 -10
-5 -10 -11z"/>
<path d="M2135 940 c-9 -14 8 -18 93 -22 54 -3 72 0 72 9 0 7 -3 13 -7 13 -5
1 -40 3 -80 6 -44 3 -74 1 -78 -6z"/>
<path d="M710 924 c0 -8 5 -12 10 -9 6 3 10 10 10 16 0 5 -4 9 -10 9 -5 0 -10
-7 -10 -16z"/>
<path d="M792 900 c0 -14 2 -19 5 -12 2 6 2 18 0 25 -3 6 -5 1 -5 -13z"/>
<path d="M105 879 c-4 -11 -4 -23 -1 -26 3 -4 6 -1 6 5 0 7 7 12 15 12 8 0 15
7 15 15 0 23 -28 18 -35 -6z"/>
<path d="M2155 879 c-13 -5 0 -8 37 -8 31 -1 69 -6 83 -13 27 -12 45 -4 28 13
-12 12 -122 18 -148 8z"/>
<path d="M720 866 c0 -8 5 -18 10 -21 6 -3 10 3 10 14 0 12 -4 21 -10 21 -5 0
-10 -6 -10 -14z"/>
<path d="M820 855 c-2 -5 -4 -26 -4 -45 -1 -24 -6 -35 -16 -35 -23 0 -18 -30
6 -33 28 -4 33 11 24 73 -4 28 -9 46 -10 40z"/>
<path d="M1641 834 c0 -11 3 -14 6 -6 3 7 2 16 -1 19 -3 4 -6 -2 -5 -13z"/>
<path d="M2150 819 c0 -5 5 -7 10 -4 6 3 10 8 10 11 0 2 -4 4 -10 4 -5 0 -10
-5 -10 -11z"/>
<path d="M2188 823 c6 -2 18 -2 25 0 6 3 1 5 -13 5 -14 0 -19 -2 -12 -5z"/>
<path d="M546 792 c-6 -11 15 -37 43 -51 19 -11 25 -11 32 0 12 19 5 35 -13
31 -9 -1 -21 5 -28 13 -14 16 -26 19 -34 7z"/>
<path d="M2155 790 c28 -12 57 -12 50 0 -3 6 -21 10 -38 9 -27 0 -29 -2 -12
-9z"/>
<path d="M2265 790 c3 -5 8 -10 11 -10 2 0 4 5 4 10 0 6 -5 10 -11 10 -5 0 -7
-4 -4 -10z"/>
<path d="M657 772 c-30 -6 -16 -37 18 -40 41 -5 59 -20 44 -39 -9 -10 -9 -17
-2 -24 11 -11 20 18 22 72 0 23 -4 27 -32 31 -17 2 -40 2 -50 0z"/>
<path d="M2715 767 c-4 -9 -4 -28 -1 -42 5 -20 10 -24 24 -17 9 5 23 7 30 5 6
-3 12 0 12 6 0 6 -7 11 -15 11 -8 0 -21 12 -29 28 -12 23 -15 25 -21 9z"/>
<path d="M0 656 c0 -86 2 -97 16 -92 16 6 54 -26 54 -46 0 -4 7 -8 15 -8 9 0
15 9 15 23 0 31 -14 49 -33 42 -20 -8 -57 28 -47 46 8 14 -4 117 -15 127 -3 3
-5 -39 -5 -92z"/>
<path d="M88 734 c-5 -4 -8 -16 -8 -28 0 -14 3 -17 11 -9 6 6 9 19 7 28 -1 9
-6 13 -10 9z"/>
<path d="M788 724 c-5 -4 -8 -21 -8 -38 0 -21 3 -27 11 -19 6 6 9 23 7 38 -2
15 -6 23 -10 19z"/>
<path d="M2914 694 c3 -9 6 -18 6 -20 0 -2 7 -4 16 -4 11 0 14 5 10 16 -3 9
-6 18 -6 20 0 2 -7 4 -16 4 -11 0 -14 -5 -10 -16z"/>
<path d="M550 696 c0 -2 7 -9 15 -16 12 -10 15 -10 15 4 0 9 -7 16 -15 16 -8
0 -15 -2 -15 -4z"/>
<path d="M535 621 c-8 -49 -3 -58 35 -66 25 -6 30 -12 31 -38 1 -18 5 -43 9
-57 l8 -25 1 23 c1 16 9 26 23 30 l22 5 -22 8 c-27 10 -29 39 -3 46 23 6 18
34 -13 76 -14 20 -27 27 -40 23 -11 -3 -25 -1 -32 5 -9 7 -14 0 -19 -30z"/>
<path d="M2682 630 c0 -14 2 -19 5 -12 2 6 2 18 0 25 -3 6 -5 1 -5 -13z"/>
<path d="M719 630 c-3 -10 -5 -60 -2 -60 10 0 20 39 12 51 -5 7 -9 12 -10 9z"/>
<path d="M676 605 c4 -8 8 -15 10 -15 2 0 4 7 4 15 0 8 -4 15 -10 15 -5 0 -7
-7 -4 -15z"/>
<path d="M780 585 c0 -42 12 -45 29 -8 10 21 9 28 -1 34 -23 15 -28 10 -28
-26z"/>
<path d="M1 487 c-1 -43 3 -66 9 -62 12 7 12 82 0 110 -6 14 -9 -1 -9 -48z"/>
<path d="M550 498 c0 -18 4 -40 9 -47 8 -12 11 -9 16 11 9 34 3 60 -12 66 -9
2 -13 -7 -13 -30z"/>
<path d="M2741 492 c-5 -10 -6 -24 -2 -31 6 -9 12 -5 24 12 15 23 14 37 -4 37
-5 0 -13 -8 -18 -18z"/>
<path d="M3436 481 c-4 -5 -2 -12 3 -15 5 -4 12 -2 15 3 4 5 2 12 -3 15 -5 4
-12 2 -15 -3z"/>
<path d="M1266 396 c-58 -18 -80 -53 -88 -144 -10 -99 -10 -101 -2 -139 3 -18
3 -49 0 -68 -7 -34 -8 -35 -55 -35 -39 0 -52 5 -65 23 l-17 22 6 -22 c5 -18 2
-23 -14 -23 -12 0 -21 5 -21 10 0 6 -9 10 -19 10 -11 0 -22 6 -24 13 -4 7 -8
3 -12 -11 -4 -12 -11 -22 -16 -22 -13 0 -11 13 6 37 26 37 -1 35 -33 -2 l-31
-34 -291 -1 -291 0 5 30 c5 32 -13 42 -20 12 -3 -9 -17 -23 -32 -30 -24 -11
-29 -10 -44 8 -12 15 -23 18 -48 14 -17 -4 -34 -13 -37 -20 -7 -19 -53 -18
-53 0 0 8 4 18 10 21 15 9 12 44 -6 62 -9 10 -13 25 -10 38 3 13 0 28 -8 34
-11 9 -12 20 -6 42 11 38 6 51 -24 65 l-23 11 -2 -149 -2 -148 1828 2 c1005 2
1721 4 1591 5 -202 3 -238 6 -239 18 -1 8 -2 20 -3 27 0 6 -16 16 -35 23 -33
11 -55 35 -32 35 23 0 9 16 -29 34 -21 10 -41 25 -44 32 -3 8 -19 14 -36 14
-18 0 -29 4 -25 10 3 6 -3 10 -14 10 -14 0 -21 6 -21 19 0 23 -50 121 -61 121
-5 0 -9 9 -9 20 0 23 -22 26 -39 6 -10 -12 -8 -17 8 -25 11 -6 23 -21 27 -33
3 -12 13 -28 20 -36 8 -7 14 -34 14 -60 1 -44 4 -49 45 -80 24 -19 64 -41 89
-51 45 -17 75 -44 76 -69 0 -10 -4 -10 -20 0 -16 10 -24 10 -40 0 -26 -16
-381 -17 -397 -1 -8 8 -13 8 -17 0 -5 -8 -99 -11 -297 -11 l-289 0 -2 33 c-1
17 0 49 1 71 2 28 -1 37 -11 34 -7 -3 -13 -11 -14 -19 0 -8 -2 -24 -2 -37 -1
-14 -6 -21 -13 -16 -7 4 -9 20 -6 40 5 29 2 36 -27 54 -47 28 -56 26 -49 -15
6 -37 2 -41 -27 -25 -15 8 -20 6 -25 -11 -4 -11 -4 -23 -1 -26 3 -3 -3 -18
-14 -33 -11 -16 -20 -33 -20 -39 0 -8 -71 -11 -234 -11 l-234 0 -4 190 c-4
226 -4 226 -102 196z m754 -351 c0 -8 -4 -15 -10 -15 -5 0 -7 7 -4 15 4 8 8
15 10 15 2 0 4 -7 4 -15z"/>
<path d="M1904 339 c-9 -16 2 -22 21 -11 15 8 16 10 1 15 -8 3 -18 2 -22 -4z"/>
<path d="M3150 320 c0 -5 5 -10 10 -10 6 0 10 5 10 10 0 6 -4 10 -10 10 -5 0
-10 -4 -10 -10z"/>
<path d="M1900 274 c0 -8 5 -12 10 -9 6 3 10 10 10 16 0 5 -4 9 -10 9 -5 0
-10 -7 -10 -16z"/>
<path d="M935 271 c-6 -11 9 -23 19 -14 9 9 7 23 -3 23 -6 0 -12 -4 -16 -9z"/>
<path d="M1915 240 c3 -5 15 -10 26 -10 10 0 19 5 19 10 0 6 -12 10 -26 10
-14 0 -23 -4 -19 -10z"/>
<path d="M813 213 c-17 -6 -16 -28 1 -42 11 -9 15 -7 20 11 10 40 8 43 -21 31z"/>
<path d="M890 205 c0 -8 5 -15 10 -15 6 0 10 7 10 15 0 8 -4 15 -10 15 -5 0
-10 -7 -10 -15z"/>
<path d="M786 121 c-4 -7 -5 -15 -2 -18 9 -9 19 4 14 18 -4 11 -6 11 -12 0z"/>
<path d="M828 125 c-8 -9 6 -66 16 -65 5 1 12 -4 17 -11 6 -10 13 -7 28 12 24
28 26 40 9 57 -12 12 -60 17 -70 7z"/>
<path d="M1110 40 c0 -5 5 -10 11 -10 5 0 7 5 4 10 -3 6 -8 10 -11 10 -2 0 -4
-4 -4 -10z"/>
</g>
</svg>
